<?xml version="1.0" encoding="UTF-8"?>
<svg xmlns="http://www.w3.org/2000/svg" id="a" width="865.76" height="682.89" viewBox="0 0 865.76 682.89">
  <g>
    <path d="M235.4,18h33.21V610.13h-33.21V18Z" fill="#fff" stroke="#231f20" stroke-miterlimit="10"></path>
    <path d="M268.61,610.13l7.54-10.26,2.35-581.81-9.89-.05V610.13h0Z" fill="#e2e3e4" stroke="#231f20" stroke-miterlimit="10"></path>
    <path d="M206.84,620.77h97.86c.08,0,.13-.07,.11-.14l-1.09-4.37-35.12-6.13h-33.21l-27.01,7.19-1.55,3.45h0Z" fill="#fff" stroke="#231f20" stroke-miterlimit="10"></path>
    <path d="M287.09,603.3l23.6,6.83,1.94,4.12-7.51,6.31c-.12,.1-.3,.04-.33-.11l-1.05-4.2-35.12-6.13,7.54-10.26,10.93,3.43Z" fill="#e2e3e4" stroke="#231f20" stroke-miterlimit="10"></path>
    <path d="M234.96,252.24l-6.88,12.94v31.58l7.28,15.84-.4-60.36h0Z" fill="#e2e3e4" stroke="#231f20" stroke-miterlimit="10"></path>
    <path d="M268.61,18h-74.38l2.91,4.82h71.47v-4.82Z" fill="#e2e3e4" stroke="#231f20" stroke-miterlimit="10"></path>
    <path d="M168.59,204.38h-29.6c-18.47,0-33.45,24.78-33.45,55.35s14.97,55.36,33.45,55.36c.12,0,.24,0,.36-.02s.24,.02,.36,.02,.24,0,.36-.02,.24,.02,.36,.02,.24,0,.36-.02,.24,.02,.36,.02,.24,0,.36-.02,.24,.02,.36,.02,.24,0,.36-.02,.24,.02,.36,.02,.24,0,.36-.02,.24,.02,.36,.02,.24,0,.36-.02,.24,.02,.36,.02,.24,0,.36-.02,.24,.02,.36,.02,.24,0,.36-.02,.24,.02,.36,.02,.24,0,.36-.02,.24,.02,.36,.02,.24,0,.36-.02,.24,.02,.36,.02,.24,0,.36-.02,.24,.02,.36,.02,.24,0,.36-.02,.24,.02,.36,.02,.24,0,.36-.02,.24,.02,.36,.02,.24,0,.36-.02,.24,.02,.36,.02,.24,0,.36-.02,.24,.02,.36,.02,.24,0,.36-.02,.24,.02,.36,.02,.24,0,.36-.02,.24,.02,.36,.02,.24,0,.36-.02,.24,.02,.36,.02,.24,0,.36-.02,.24,.02,.36,.02,.24,0,.36-.02,.24,.02,.36,.02,.24,0,.36-.02,.24,.02,.36,.02,.24,0,.36-.02,.24,.02,.36,.02,.24,0,.36-.02,.24,.02,.36,.02,.24,0,.36-.02,.24,.02,.36,.02,.24,0,.36-.02,.24,.02,.36,.02,.24,0,.36-.02,.24,.02,.36,.02,.24,0,.36-.02,.24,.02,.36,.02,.24,0,.36-.02,.24,.02,.36,.02,.24,0,.36-.02,.24,.02,.36,.02,.24,0,.36-.02,.24,.02,.36,.02,.24,0,.36-.02,.24,.02,.36,.02,.24,0,.36-.02,.24,.02,.36,.02,.24,0,.36-.02,.24,.02,.36,.02,.24,0,.36-.02,.24,.02,.36,.02,.24,0,.36-.02,.24,.02,.36,.02,.24,0,.36-.02,.24,.02,.36,.02,.24,0,.36-.02,.24,.02,.36,.02,.24,0,.36-.02,.24,.02,.36,.02,.24,0,.36-.02,.24,.02,.36,.02,.24,0,.36-.02,.24,.02,.36,.02c18.47,0,33.45-24.78,33.45-55.36s-14.97-55.36-33.45-55.36h0Z" fill="#e2e3e4" stroke="#231f20" stroke-miterlimit="10"></path>
    <path d="M469.63,204.38h-29.6c-18.47,0-33.45,24.78-33.45,55.35s14.97,55.36,33.45,55.36c.12,0,.24,0,.36-.02s.24,.02,.36,.02,.24,0,.36-.02,.24,.02,.36,.02,.24,0,.36-.02,.24,.02,.36,.02,.24,0,.36-.02,.24,.02,.36,.02,.24,0,.36-.02,.24,.02,.36,.02,.24,0,.36-.02,.24,.02,.36,.02,.24,0,.36-.02,.24,.02,.36,.02,.24,0,.36-.02,.24,.02,.36,.02,.24,0,.36-.02,.24,.02,.36,.02,.24,0,.36-.02,.24,.02,.36,.02,.24,0,.36-.02,.24,.02,.36,.02,.24,0,.36-.02,.24,.02,.36,.02,.24,0,.36-.02,.24,.02,.36,.02,.24,0,.36-.02,.24,.02,.36,.02,.24,0,.36-.02,.24,.02,.36,.02,.24,0,.36-.02,.24,.02,.36,.02,.24,0,.36-.02,.24,.02,.36,.02,.24,0,.36-.02,.24,.02,.36,.02,.24,0,.36-.02,.24,.02,.36,.02,.24,0,.36-.02,.24,.02,.36,.02,.24,0,.36-.02,.24,.02,.36,.02,.24,0,.36-.02,.24,.02,.36,.02,.24,0,.36-.02,.24,.02,.36,.02,.24,0,.36-.02,.24,.02,.36,.02,.24,0,.36-.02,.24,.02,.36,.02,.24,0,.36-.02,.24,.02,.36,.02,.24,0,.36-.02,.24,.02,.36,.02,.24,0,.36-.02,.24,.02,.36,.02,.24,0,.36-.02,.24,.02,.36,.02,.24,0,.36-.02,.24,.02,.36,.02,.24,0,.36-.02,.24,.02,.36,.02,.24,0,.36-.02,.24,.02,.36,.02,.24,0,.36-.02,.24,.02,.36,.02,.24,0,.36-.02,.24,.02,.36,.02,.24,0,.36-.02,.24,.02,.36,.02,.24,0,.36-.02,.24,.02,.36,.02,.24,0,.36-.02,.24,.02,.36,.02,.24,0,.36-.02,.24,.02,.36,.02,.24,0,.36-.02,.24,.02,.36,.02,.24,0,.36-.02,.24,.02,.36,.02,.24,0,.36-.02,.24,.02,.36,.02c18.47,0,33.45-24.78,33.45-55.36s-14.98-55.36-33.45-55.36h0Z" fill="#e2e3e4" stroke="#231f20" stroke-miterlimit="10"></path>
    <path d="M503.08,259.73c0,30.57-14.98,55.36-33.45,55.36s-33.45-24.78-33.45-55.36,14.97-55.35,33.45-55.35,33.45,24.78,33.45,55.35Zm-301.04,0c0,30.57-14.97,55.36-33.45,55.36s-33.45-24.78-33.45-55.36,14.98-55.35,33.45-55.35,33.45,24.78,33.45,55.35Z" fill="#231f20" stroke="#231f20" stroke-miterlimit="10"></path>
    <path d="M349.74,204.38h-29.6c-18.47,0-33.45,24.78-33.45,55.35s14.98,55.36,33.45,55.36c.12,0,.24,0,.36-.02s.24,.02,.36,.02,.24,0,.36-.02,.24,.02,.36,.02,.24,0,.36-.02,.24,.02,.36,.02,.24,0,.36-.02,.24,.02,.36,.02,.24,0,.36-.02,.24,.02,.36,.02,.24,0,.36-.02,.24,.02,.36,.02,.24,0,.36-.02,.24,.02,.36,.02,.24,0,.36-.02,.24,.02,.36,.02,.24,0,.36-.02,.24,.02,.36,.02,.24,0,.36-.02,.24,.02,.36,.02,.24,0,.36-.02,.24,.02,.36,.02,.24,0,.36-.02,.24,.02,.36,.02,.24,0,.36-.02,.24,.02,.36,.02,.24,0,.36-.02,.24,.02,.36,.02,.24,0,.36-.02,.24,.02,.36,.02,.24,0,.36-.02,.24,.02,.36,.02,.24,0,.36-.02,.24,.02,.36,.02,.24,0,.36-.02,.24,.02,.36,.02,.24,0,.36-.02,.24,.02,.36,.02,.24,0,.36-.02,.24,.02,.36,.02,.24,0,.36-.02,.24,.02,.36,.02,.24,0,.36-.02,.24,.02,.36,.02,.24,0,.36-.02,.24,.02,.36,.02,.24,0,.36-.02,.24,.02,.36,.02,.24,0,.36-.02,.24,.02,.36,.02,.24,0,.36-.02,.24,.02,.36,.02,.24,0,.36-.02,.24,.02,.36,.02,.24,0,.36-.02,.24,.02,.36,.02,.24,0,.36-.02,.24,.02,.36,.02,.24,0,.36-.02,.24,.02,.36,.02,.24,0,.36-.02,.24,.02,.36,.02,.24,0,.36-.02,.24,.02,.36,.02,.24,0,.36-.02,.24,.02,.36,.02,.24,0,.36-.02,.24,.02,.36,.02,.24,0,.36-.02,.24,.02,.36,.02,.24,0,.36-.02,.24,.02,.36,.02,.24,0,.36-.02,.24,.02,.36,.02,.24,0,.36-.02,.24,.02,.36,.02,.24,0,.36-.02,.24,.02,.36,.02,.24,0,.36-.02,.24,.02,.36,.02,.24,0,.36-.02,.24,.02,.36,.02c18.47,0,33.45-24.78,33.45-55.36s-14.98-55.36-33.45-55.36h0Zm301.04,0h-29.6c-18.47,0-33.45,24.78-33.45,55.35s14.98,55.36,33.45,55.36c.12,0,.24,0,.36-.02s.24,.02,.36,.02,.24,0,.36-.02,.24,.02,.36,.02,.24,0,.36-.02,.24,.02,.36,.02,.24,0,.36-.02,.24,.02,.36,.02,.24,0,.36-.02,.24,.02,.36,.02,.24,0,.36-.02,.24,.02,.36,.02,.24,0,.36-.02,.24,.02,.36,.02,.24,0,.36-.02,.24,.02,.36,.02,.24,0,.36-.02,.24,.02,.36,.02,.24,0,.36-.02,.24,.02,.36,.02,.24,0,.36-.02,.24,.02,.36,.02,.24,0,.36-.02,.24,.02,.36,.02,.24,0,.36-.02,.24,.02,.36,.02,.24,0,.36-.02,.24,.02,.36,.02,.24,0,.36-.02,.24,.02,.36,.02,.24,0,.36-.02,.24,.02,.36,.02,.24,0,.36-.02,.24,.02,.36,.02,.24,0,.36-.02,.24,.02,.36,.02,.24,0,.36-.02,.24,.02,.36,.02,.24,0,.36-.02,.24,.02,.36,.02,.24,0,.36-.02,.24,.02,.36,.02,.24,0,.36-.02,.24,.02,.36,.02,.24,0,.36-.02,.24,.02,.36,.02,.24,0,.36-.02,.24,.02,.36,.02,.24,0,.36-.02,.24,.02,.36,.02,.24,0,.36-.02,.24,.02,.36,.02,.24,0,.36-.02,.24,.02,.36,.02,.24,0,.36-.02,.24,.02,.36,.02,.24,0,.36-.02,.24,.02,.36,.02,.24,0,.36-.02,.24,.02,.36,.02,.24,0,.36-.02,.24,.02,.36,.02,.24,0,.36-.02,.24,.02,.36,.02,.24,0,.36-.02,.24,.02,.36,.02,.24,0,.36-.02,.24,.02,.36,.02,.24,0,.36-.02,.24,.02,.36,.02,.24,0,.36-.02,.24,.02,.36,.02,.24,0,.36-.02,.24,.02,.36,.02,.24,0,.36-.02,.24,.02,.36,.02,.24,0,.36-.02,.24,.02,.36,.02,.24,0,.36-.02,.24,.02,.36,.02,.24,0,.36-.02,.24,.02,.36,.02c18.47,0,33.45-24.78,33.45-55.36s-14.98-55.36-33.45-55.36h0Z" fill="#e2e3e4" stroke="#231f20" stroke-miterlimit="10"></path>
    <path d="M70.15,273.95c-6.34-.08-11.41-5.29-11.33-11.63,0-.11,0-.22,0-.33,.93-22.68,5.05-70.9,15.92-81.44,14.21-13.78,82.59-34.19,88.36-39.07,5.77-4.88,44.85-69.27,94.13-91.04,47.55-20.99,150.82-32.22,337.56-.93,8.98,1.51,12.72,12.37,6.57,19.09-42.46,46.32-165.72,180.62-168.29,182.09-3.11,1.78-41.29,23.54-42.62,23.09-1.33-.45-241.99-1.33-244.65,0-2.05,1.03-52.52,.48-75.65,.17h0Z" fill="#fff" stroke="#231f20" stroke-miterlimit="10"></path>
    <path d="M296.02,257.66c-1.33,.44-3.35-48.43,4.88-62.16,13.32-22.2,65.27-45.73,64.82-44.4-.45,1.33,31.08-88.8,89.69-103.91,58.61-15.1,139.42,.45,160.74,5.33,21.32,4.88,67.04,68.38,78.59,98.13,11.54,29.75,16.43,73.26,14.21,91.02-2.22,17.76-107.89,30.2-109.67,30.66s-280.17-3.55-281.95-4-21.31-10.67-21.31-10.67Z" fill="#fff" stroke="#231f20" stroke-miterlimit="10"></path>
    <path d="M611.69,282.22h-223.15l-1.5-21.61h224.97l2.66,15.39-2.98,6.21h0Z" fill="#e2e3e4" stroke="#231f20" stroke-miterlimit="10"></path>
    <path d="M388.55,282.22c1.97-7.34,2.95-14.9,2.94-22.5,0-33.84-18.82-61.27-42.03-61.27s-42.03,27.43-42.03,61.27c-.02,7.59,.97,15.16,2.94,22.5h78.19Z" fill="#e2e3e4" stroke="#231f20" stroke-miterlimit="10"></path>
    <path d="M689.88,282.22h21.29c4.66,0,8.88-14.57,9.33-25.23,.44-10.66-2.01-17.98-4-20.42s-27.97-.23-27.97-.23l1.35,45.88Z" fill="#bcb9ae" stroke="#231f20" stroke-miterlimit="10"></path>
    <path d="M689.88,282.22c1.97-7.34,2.96-14.9,2.94-22.5,0-33.84-18.82-61.27-42.04-61.27s-42.03,27.43-42.03,61.27c-.02,7.6,.97,15.16,2.95,22.5h78.18Z" fill="#e2e3e4" stroke="#231f20" stroke-miterlimit="10"></path>
    <path d="M684.24,259.73c0,30.57-14.98,55.36-33.45,55.36s-33.45-24.78-33.45-55.36,14.98-55.35,33.45-55.35,33.45,24.78,33.45,55.35Z" fill="#231f20" stroke="#231f20" stroke-miterlimit="10"></path>
    <path d="M384.67,148.43c1.92,2.56,113.95,.29,117.52-.29,3.56-.57-1.19-85.54-2.66-88.8-1.48-3.27-27.53-7.99-64.23,13.32-36.07,20.93-55.06,69.85-50.62,75.77h0Z" fill="#e2e3e4" stroke="#231f20" stroke-miterlimit="10"></path>
    <path d="M487.09,123.2c1.45-1.77,2.25-3.99,2.25-6.28v-16.45c-.02-5.48-4.46-9.92-9.94-9.93h-34.21c-5.48,.01-9.92,4.45-9.94,9.93v16.45c0,2.13,.69,4.2,1.96,5.9-4.39,1.13-7.47,5.09-7.48,9.62v17.57l63.69-1.41v-16.16c-.01-4.09-2.52-7.76-6.33-9.25h0Z" fill="#fff" stroke="#231f20" stroke-miterlimit="10"></path>
    <path d="M499.53,59.34c-1.48-3.26-27.53-7.99-64.23,13.32-7.59,4.41-14.42,10.05-20.44,16.27,5.36-5.17,11.3-9.87,17.8-13.64,36.7-21.31,62.75-16.58,64.23-13.32,1.33,2.93,5.31,72.16,3.49,86.3,.97-.05,1.59-.09,1.81-.13,3.56-.6-1.18-85.55-2.66-88.8h0Z" fill="#fff" stroke="#231f20" stroke-miterlimit="10"></path>
    <path d="M516.11,58.44c-2.73,1.05,3.33,27.01,3.92,46.25s2.88,41.37,3.48,42.55,88.51,.89,92.06,0c3.55-.89-18.35-74.89-21.31-79.92-2.96-5.03-70.46-11.84-78.15-8.88Zm89.68,10.06s21.61,55.66,21.9,77.85c0,0,27.84,2.67,33.75-3.55,5.9-6.22-2.67-24.86-12.72-41.74-10.05-16.88-42.04-39.66-42.93-32.56Z" fill="#e2e3e4" stroke="#231f20" stroke-miterlimit="10"></path>
    <path d="M383.2,259.73c0,30.57-14.98,55.36-33.45,55.36s-33.45-24.78-33.45-55.36,14.98-55.35,33.45-55.35,33.45,24.78,33.45,55.35Z" fill="#231f20" stroke="#231f20" stroke-miterlimit="10"></path>
    <path d="M373.05,262.1c0,18.66-9.14,33.78-20.41,33.78s-20.41-15.13-20.41-33.78,9.14-33.78,20.41-33.78,20.41,15.12,20.41,33.78Z" fill="#fff" stroke="#231f20" stroke-miterlimit="10"></path>
    <path d="M352.94,283.07h-.21c-.68-.02-1.36-.14-2.01-.36-3.63-1.21-6.67-5.36-8.32-11.37v-.07c-.97-3.63-1.4-7.39-1.26-11.15,.34-11.12,4.96-20.36,10.97-21.96,.65-.18,1.33-.26,2.01-.24,3.33,.1,6.36,2.58,8.55,6.95,2.16,4.32,3.24,10.01,3.05,16.02-.17,5.55-1.44,10.83-3.53,14.86-2.4,4.67-5.77,7.33-9.25,7.33h0Zm-9.98-11.85c1.59,5.72,4.56,9.81,7.94,10.94,.59,.2,1.21,.31,1.84,.34,3.33,.1,6.6-2.46,8.94-7.02,2.06-3.95,3.29-9.14,3.46-14.62,.18-5.91-.88-11.5-2.99-15.74-2.09-4.18-4.95-6.54-8.05-6.63-.63-.02-1.25,.06-1.86,.22-5.68,1.52-10.21,10.73-10.54,21.43-.13,3.71,.29,7.43,1.25,11.02v.07Z" fill="#fff"></path>
    <path d="M365.43,260.86c.29-9.81-3.16-17.88-7.75-18.02-.46-.01-.91,.05-1.35,.2-3.99,1.23-7.23,8.47-7.51,17.31-.27,8.84,2.52,16.26,6.42,17.74,.42,.17,.87,.27,1.33,.29,4.59,.13,8.55-7.7,8.85-17.51h0Z" fill="#e2e3e4" stroke="#231f20" stroke-miterlimit="10"></path>
    <path d="M675.71,262.1c0,18.66-9.14,33.78-20.41,33.78s-20.41-15.13-20.41-33.78,9.14-33.78,20.41-33.78,20.41,15.12,20.41,33.78Z" fill="#fff" stroke="#231f20" stroke-miterlimit="10"></path>
    <path d="M668.1,260.86c.3-9.81-3.16-17.88-7.75-18.02-.46-.01-.91,.05-1.35,.2-3.98,1.23-7.23,8.47-7.51,17.31-.27,8.84,2.52,16.26,6.43,17.74,.42,.17,.87,.27,1.33,.29,4.59,.13,8.54-7.7,8.85-17.51h0Z" fill="#e2e3e4" stroke="#231f20" stroke-miterlimit="10"></path>
    <path d="M85.11,235.01c0,4.66-3.77,8.44-8.43,8.44-4.66,0-8.44-3.77-8.44-8.43,0-4.66,3.77-8.44,8.43-8.44h0c4.66,0,8.43,3.78,8.44,8.43Z" fill="#1b4d9d" stroke="#231f20" stroke-miterlimit="10"></path>
    <path d="M280.92,235.01c0,4.66-3.77,8.44-8.43,8.44s-8.44-3.77-8.44-8.43c0-4.66,3.77-8.44,8.43-8.44h0c4.66,0,8.43,3.77,8.44,8.43h0Z" fill="#1b4d9d" stroke="#231f20" stroke-miterlimit="10"></path>
    <path d="M405.93,55.63s-49.73,74.15-53.28,90.58c0,0-169.17-1.33-172.72-1.33s-.44-8.44,4.44-15.54,58.33-60.04,73.69-67.93c16.44-8.44,147.87-5.78,147.87-5.78Z" fill="#e2e3e4" stroke="#231f20" stroke-miterlimit="10"></path>
    <path d="M289.46,267.1c-.06,2.09-1.78,3.75-3.87,3.73H70.43c-6.85,0-8.57-24.76,1.37-24.76h214.2c2.13-.01,3.86,1.7,3.87,3.83,0,.03,0,.06,0,.08l-.41,17.12Z" fill="#fcfcf9"></path>
    <path d="M289.46,267.1c-.06,2.09-1.78,3.75-3.87,3.73H70.43c-6.85,0-8.57-24.76,1.37-24.76h214.2c2.13-.01,3.86,1.7,3.87,3.83,0,.03,0,.06,0,.08l-.41,17.12Z" fill="#fcfcf9"></path>
    <path d="M72.57,246.06c-.94,6.49,1.11,14.67,4.86,14.67h195.24c1.89,.01,3.45-1.49,3.51-3.38l.27-11.29H72.57Z" fill="#f9f3de"></path>
    <path d="M382.29,149.23s2.24,3.95,9.34,2.76c7.1,9.08,7.18,9.15,7.18,9.15,0,0-7.75,2.7-17.17-2.63,.06-3.95,.65-9.28,.65-9.28Z" fill="#fff" stroke="#231f20" stroke-miterlimit="10"></path>
    <path d="M427.15,135.5c7.4,3.83,8.29,18.71,4.43,22.72-3.86,4.02-26.78,5.03-34.16,2.56s-9.1-23.82-2.76-27.36,24.48-2.08,32.49,2.07h0Z" fill="#bcb9ae" stroke="#231f20" stroke-miterlimit="10"></path>
    <path d="M492.32,109.24l-.05-.02s.03,.02,.05,.02Z" fill="#fff"></path>
    <path d="M493.58,109.52h-1.31l-.05-.02s-.08-.04-.11-.06l.22-.35v0l.08-.13,1.18,.57Zm-1.15-.55l-.04,.1,.07-.09h-.03Z"></path>
    <path d="M542.44,58.55c-.67,.54-1.36,1.07-2.03,1.61-7.51,6.11-14.87,12.53-21.6,19.5-.39,.4-.77,.81-1.15,1.21,.43,3.16,.86,6.46,1.25,9.76,1.55-1.46,3.09-2.92,4.64-4.39,3.69-3.48,7.39-6.95,11.19-10.32s7.67-6.64,11.63-9.81c1.02-.82,2.05-1.62,3.07-2.42,.03-.03,.23-.18,.31-.24l.55-.43,1.72-1.32c.92-.69,1.87-1.37,2.8-2.06-4.2-.42-8.39-.8-12.4-1.1Zm21.58-15.76c-.24,0-.68,.16-1.1,.7,.05-.03,.11-.06,.17-.09,.27-.26,.59-.47,.93-.61Z" fill="#fff"></path>
    <path d="M594.25,67.32c-2.97-5.03-70.45-11.84-78.15-8.88-.3,.11-.49,.54-.59,1.21,15.82-1.19,72.05,4.86,74.74,9.44,2.72,4.64,21.51,67.74,21.7,78.4,1.97-.08,3.25-.16,3.61-.26,3.55-.89-18.35-74.89-21.31-79.92Z" fill="#fff" stroke="#231f20" stroke-miterlimit="10"></path>
    <path d="M648.73,101.07c-10.06-16.87-42.03-39.66-42.92-32.56,0,0,.08,.22,.24,.63,7.65,.89,32.04,19.52,40.6,33.85,9.66,16.19,17.95,34.02,13.37,40.92,.53-.3,1.01-.67,1.44-1.11,5.91-6.22-2.68-24.86-12.73-41.74h0Z" fill="#fff" stroke="#231f20" stroke-miterlimit="10"></path>
    <path d="M187.01,132.45c4.88-7.11,58.33-60.05,73.71-67.93,14.53-7.46,119.01-6.25,142.94-5.86,1.28-1.93,2.01-3.02,2.01-3.02,0,0-131.43-2.66-147.86,5.78-15.37,7.89-68.82,60.83-73.71,67.93-4.88,7.11-7.98,15.54-4.42,15.54h1.44c.51-3.09,2.85-8.02,5.89-12.43Z" fill="#fff" stroke="#231f20" stroke-miterlimit="10"></path>
    <path d="M507.84,45.43s10.67,182.59,11.08,210.17m-138.66-95.99s-3.16,26.41-2.3,45.64" fill="none" stroke="#231f20" stroke-linecap="round" stroke-linejoin="round"></path>
    <path d="M237.58,243.11l-.04-.03c-.26-.18,.32,.36,.04,.03Z" fill="#fff"></path>
    <path d="M237.67,243.52c-.11,0-.21-.06-.29-.14-.08-.08-.31-.29-.13-.5,.05-.07,.2-.2,.46-.02l.04,.03,.05,.05c.07,.09,.26,.31,.06,.51-.05,.05-.12,.08-.19,.08h0Z"></path>
    <path d="M76.68,180.7c-7.23,0-15.1,28.86-14.21,35.08,.89,6.22,27.99,8.4,36.85,5.32,8.87-3.07,17.29-8.16,19.54-13.76,4.44-11.09-28.42-26.64-42.18-26.64h0Z" fill="#1b4d9d" stroke="#231f20" stroke-miterlimit="10"></path>
    <path d="M288.06,182.63c24.18,1.63,24.47,32.1,5.4,40.67-6.15,2.77-29.85,3.94-39.36,.64s-18.56-8.76-20.97-14.78c-4.76-11.91,40.19-27.54,54.93-26.53Z" fill="#1b4d9d" stroke="#231f20" stroke-miterlimit="10"></path>
    <circle cx="77.36" cy="204.18" r="11.97" fill="#fff"></circle>
    <circle cx="99.25" cy="208.45" r="6.22" fill="#fff"></circle>
    <circle cx="284.56" cy="203.9" r="15.02" fill="#fff"></circle>
    <circle cx="257.09" cy="209.26" r="7.8" fill="#fff"></circle>
    <circle cx="77.36" cy="204.18" r="11.97" fill="#fff" stroke="#231f20" stroke-miterlimit="10"></circle>
    <circle cx="99.25" cy="208.45" r="6.22" fill="#fff" stroke="#231f20" stroke-miterlimit="10"></circle>
    <circle cx="284.56" cy="203.9" r="15.02" fill="#fff" stroke="#231f20" stroke-miterlimit="10"></circle>
    <circle cx="257.09" cy="209.26" r="7.8" fill="#fff" stroke="#231f20" stroke-miterlimit="10"></circle>
    <path d="M512.63,18h33.21V610.13h-33.21V18Z" fill="#fff" stroke="#231f20" stroke-miterlimit="10"></path>
    <path d="M545.84,610.13l7.54-10.26,2.35-581.81-9.89-.05V610.13Z" fill="#e2e3e4" stroke="#231f20" stroke-miterlimit="10"></path>
    <path d="M484.07,620.77h98.01l-1.13-4.52-35.12-6.13h-33.22l-27.01,7.19-1.54,3.45Z" fill="#fff" stroke="#231f20" stroke-miterlimit="10"></path>
    <path d="M553.38,599.87l34.53,10.26,1.94,4.12-7.76,6.53-1.13-4.52-35.12-6.13,7.54-10.26Z" fill="#e2e3e4" stroke="#231f20" stroke-miterlimit="10"></path>
    <path d="M512.19,252.24l-6.87,12.94v31.58l7.28,15.84-.41-60.36h0Z" fill="#e2e3e4" stroke="#231f20" stroke-miterlimit="10"></path>
    <path d="M545.84,18h-74.38l2.91,4.82h71.47v-4.82Z" fill="#e2e3e4" stroke="#231f20" stroke-miterlimit="10"></path>
    <g>
      <path d="M648.7,272.38l-1.32-12.51c-.02-.15,.03-.3,.12-.42l3-3.83c.16-.21,.17-.5,0-.71l-4.27-5.66c-.15-.2-.41-.28-.65-.2-.31,.11-.47,.45-.36,.76,0,.02,.01,.03,.02,.05l1.9,3.82c.11,.23,.06,.51-.12,.68l-2.45,2.28c-.18,.17-.44,.2-.66,.09l-2.63-1.39c-.2-.1-.32-.31-.31-.53l.17-4.72c0-.29-.21-.54-.49-.59-.29-.04-.57,.14-.65,.42l-1.87,7.05c-.06,.24,.04,.5,.25,.64l3.97,2.54c.14,.09,.24,.24,.26,.4l1.61,10.96s2.71,.92,4.46,.85h0Z" fill="#fff" fill-rule="evenodd" stroke="#231f20" stroke-miterlimit="10"></path>
      <path d="M642.58,260.3l4.78-.67,.1,.91-4.72,.81-.16-1.06Zm3.11,11.67l-1.19-8.63c-.07-.49,.27-.95,.76-1.03,.5-.09,.98,.25,1.06,.75,0,.02,0,.03,0,.05l1.02,9.21-1.65-.36Z" fill="#e2e3e4" stroke="#231f20" stroke-miterlimit="10"></path>
    </g>
    <rect x="479.29" y="166.79" width="26.12" height="7.18" rx="3.59" ry="3.59" fill="#bcb9ae" stroke="#231f20" stroke-miterlimit="10"></rect>
    <rect x="588.65" y="163.06" width="26.12" height="7.18" rx="3.59" ry="3.59" fill="#bcb9ae" stroke="#231f20" stroke-miterlimit="10"></rect>
    <path d="M596.11,52.64s24.63,63.61,35.35,149.09" fill="none" stroke="#231f20" stroke-linecap="round" stroke-linejoin="round"></path>
    <g>
      <path d="M715.15,639.52s-1.22-.14-1.49,1.35l-.08,.98c-.04,.5,.21,.99,.65,1.24,1.66,.99,6.35,3.22,14.87,3.33,0,0,9.62,.81,13.95-1.08,0,0,1.76-1.22,3.79-1.35l7.04-1.08,.02,2.3,2.55-.4,.54-3.79-4.74-3.52-37.11,2.04Z" fill="#fff" stroke="#231f20" stroke-miterlimit="10"></path>
      <path d="M778.81,654.82v7.45l10.77-1.38c1.11-.14,1.93-1.1,1.9-2.22l-.07-2.36-12.6-1.49Z" fill="#fff" stroke="#231f20" stroke-miterlimit="10"></path>
      <path d="M778.81,658.07l-6.37,2.71s-1.35,2.71-6.23,3.52c0,0-15.85,1.76-25.33-.81l-5.99-1.56c-.44-.11-.71-.55-.62-.99l.36-1.79c.09-.45,.52-.75,.97-.67h0s30.34-2.98,30.34-2.98l12.87-.68v3.25Z" fill="#fff" stroke="#231f20" stroke-miterlimit="10"></path>
      <path d="M734.98,631.68s-.73,1.88-9.27,2.29c0,0-10.43-.81-10.7,5.28,0,0,2.02,3.72,14.35,4.1,2.85,.09,5.71-.1,8.53-.53l15.66-2.39s-10.66-3.04-18.57-8.74Z" fill="#1b4d9d" stroke="#231f20" stroke-miterlimit="10"></path>
      <path d="M779.22,301.85s3.42,35.02,3.05,53.57c0,0-33.89-8.78-30.35-8.72,3.53,.05,27.3-44.85,27.3-44.85Z" fill="#231f20" stroke="#231f20" stroke-miterlimit="10"></path>
      <ellipse cx="779.4" cy="288.67" rx="9" ry="8.72" transform="translate(278.44 951.87) rotate(-73.26)" fill="#231f20" stroke="#231f20" stroke-miterlimit="10"></ellipse>
      <ellipse cx="772.77" cy="292.19" rx="6.92" ry="6.71" transform="translate(270.34 948.02) rotate(-73.26)" fill="#1b4d9d" stroke="#231f20" stroke-miterlimit="10"></ellipse>
      <path d="M714.68,365.04l20.59-.81,13.27-13.54s12.87-15.44,20.45-17.61l-7.59-4.74-25.86,7.91-11.52,11.05-9.35,17.74Z" fill="#1b4d9d" stroke="#231f20" stroke-miterlimit="10"></path>
      <path d="M770.24,416.79l-16.29-2.99-15.44-27.63-.27-25.33s19.5-23.57,27.9-25.19l7.58,22.48-3.49,58.66Z" fill="#1b4d9d" stroke="#231f20" stroke-miterlimit="10"></path>
      <path d="M654.88,289.39l14.76,25.87s5.92,8.56,10.27,10.47c1.28,.56,2.51,1.23,3.64,2.05,5.89,4.3,22.31,15.72,37.73,21.12l3.49-13.05-5.7-7.85s-15.26-6.51-23.73-11.18c-2.62-1.44-4.88-3.44-6.65-5.86-1.9-2.59-4.64-6.24-6.73-8.57,0,0-14.76-14.9-19.5-20.32l-7.58,7.31Z" fill="#f9a17f" stroke="#231f20" stroke-miterlimit="10"></path>
      <path d="M749.73,279.21s-4.06-1.14-7.06,3.64c0,0,4.15-2.61,7.96-1.9-.23-.33-.46-.72-.66-1.18-.09-.19-.16-.38-.23-.56Z" fill="#231f20" stroke="#231f20" stroke-miterlimit="10"></path>
      <path d="M759.31,332.46s-3.66,1.49-9.89,5.28c-5,3.04-11.48,2.34-13.85,1.94-.44-.07-.7-.53-.54-.94,.49-1.25,.84-3.27,1.09-5.09,.34-2.53,.21-5.1-.38-7.59l-2.14-9.06,13.64-7.7,8.94-.81,8.13,15.17-5.01,8.8Z" fill="#f9a17f" stroke="#231f20" stroke-miterlimit="10"></path>
      <path d="M790.46,648.18s1.9,2.71,1.63,9.35c0,0-6.77,2.71-20.32-5.15,0,0-9.75-7.04-18.29-6.37l1.9-5.01s-15.03-4.2-21.4-10.43c0,0,1.22-3.39,3.39-4.74,0,0-3.52-6.91-3.25-15.58,0,0,1.35-16.12-.95-28.17l-6.5-48.76-10.16-85.87s-1.24-8.16-.85-18.16c.06-1.47,.15-2.98,.28-4.51,.03-.37,.06-.73,.08-1.1,.08-1.59,.03-3.18-.15-4.75-.39-3.42-.95-9.04-.99-13.36-.02-2.06-.25-4.11-.69-6.13-.22-.99-.42-2.31-.52-4.01l-2.17-24.92s-1.63-10.97,10.97-23.43l13.48-12.16-.33,1.84s-1.48,1.35-2.63,2.86c-1.04,1.35-2.24,2.57-3.55,3.66-.96,.8-1.96,1.77-2.49,2.72l-7.74,13.72c-.96,1.71,.5,3.77,2.43,3.43l2.73-.49s6.27-1.34,10.03-1.41c.92-.02,1.74-.59,2.09-1.44,.15-.36,.27-.74,.36-1.12,.09-.38,.15-.77,.2-1.16,.05-.46,.25-1.03,.86-1.51l.95-.68s.25-.16,.62-.31c.95-.37,1.83-.91,2.57-1.63l4.4-4.29s13.82-16.25,20.52-15.37l2.5,1.51s-5.95,.59-10.56,6.01l-16.36,17.18c-1.63,1.72-2.5,4.02-2.4,6.39,.48,11.09,3.81,43.08,26.34,49.43l10.43,5.96s.49,1.26,1.21,3.55c.51,1.63,1.15,3.8,1.81,6.41,1.35,5.31,2.81,12.47,3.62,20.79l4.91,40.46c.14,1.14,.35,2.27,.62,3.38,1.06,4.39,3.78,18.36,.43,35.53,0,0-1.76,6.1,0,15.58l4.2,91.83s1.22,6.23-3.25,10.43Z" fill="#bcb9ae" stroke="#231f20" stroke-miterlimit="10"></path>
      <path d="M719.48,327.45s-4.33,4.47-1.08,13.27l2.72,7.69,14.82-13.49s.4-1.95,.3-3.22c0,0-12.02-4.12-16.76-4.26Z" fill="#1b4d9d" stroke="#231f20" stroke-miterlimit="10"></path>
      <path d="M714.74,371.2l9.21-1.49s6.23-2.03,14.09-1.22c0,0-1.22,10.43-8.13,16.8l-15.03,1.22s-.38-3.54-1.07-5.63c-.25-.77-.29-1.6-.11-2.39,.44-1.92,1.17-5.16,1.17-5.26,0-.14-.14-2.03-.14-2.03Z" fill="#1b4d9d" stroke="#231f20" stroke-miterlimit="10"></path>
      <path d="M755.38,641.01l.93-7.41c.32-2.58-.18-5.2-1.44-7.47-1.63-2.94-3.6-8-3.27-14.91l1.93-22.04c.46-5.24,.2-10.52-.77-15.7-1.07-5.68-2.7-13.11-4.68-18.47,0,0-5.55-16.66-6.64-38.6v-7.51c0-1.4-.32-2.78-.95-4.03-2.02-4.04-6.53-14.52-6.32-26.98,.03-1.53-.2-3.05-.68-4.5-1.78-5.41-6.14-19.97-7.63-36.63" fill="none" stroke="#231f20" stroke-linecap="round" stroke-linejoin="round"></path>
      <rect x="769.69" y="521.84" width="2.7" height="2.27" transform="translate(-159 578.02) rotate(-37.53)" fill="#fff" stroke="#231f20" stroke-miterlimit="10"></rect>
      <rect x="761.84" y="462.74" width="10.19" height="32.51" transform="translate(601.62 -409.99) rotate(47.48)" fill="#e2e3e4" stroke="#231f20" stroke-miterlimit="10"></rect>
      <rect x="780.79" y="452.63" width="4.18" height="15.87" transform="translate(589.77 -426.98) rotate(47.26)" fill="#fff" stroke="#231f20" stroke-miterlimit="10"></rect>
      <path d="M777.97,655.57l-2.68,1c-1.29,.48-2.53,1.06-3.72,1.74-1.77,1.02-5.74,2.69-12.94,2.87,0,0-11.25-.45-11.92-.54-3.12-.41-11.11-2.17-11.11-2.17,0,0-1.11-4.67,6.64-6.56,2.03-.49,3.98-1.3,5.75-2.42l5.49-3.48s7.04-1.08,18.29,6.37c0,0,2.78,1.76,6.2,3.18Z" fill="#1b4d9d" stroke="#231f20" stroke-miterlimit="10"></path>
      <polygon points="778.81 662.27 772.44 660.78 778.81 658.07 778.81 662.27" fill="#231f20" stroke="#231f20" stroke-miterlimit="10"></polygon>
      <path d="M703.5,575.86l-1.36-3.47c-1.15-2.93-1.9-6-2.19-9.14-1.1-11.98,5.18-14.21,5.18-14.21,5.96-3.39,14.36,2.17,14.36,2.17l13,8.67c1.44,.99,2.46,1.42,3.07,1.61,.57,.18,1.19,.12,1.69-.19,2.07-1.31,.25-5.48,.25-5.48l-3.79-12.33c-3.66-15.58,2.98-18.69,2.98-18.69,5.28-3.25,22.62,4.06,22.62,4.06,9.62,3.52,13.41-.14,13.41-.14,6.37-4.06,3.12-18.56,3.12-18.56l-3.12-14.36c-.43-1.96-.12-3.4,.44-4.43,.7-1.3,1.96-2.2,3.39-2.53l9.31-2.11c13.95-3.52,18.69-12.87,18.69-12.87,6.5-14.36-2.3-20.99-2.3-20.99-7.18-7.18-14.3,1.04-14.3,1.04l1.7,1.87s7.04-8.33,12.32,1.43c0,0,5.69,8.53-2.57,18.56,0,0-4.6,5.5-14.55,8.17-.52,.14-1.06,.24-1.59,.31-2.82,.37-13.19,2.06-13.66,7.1,0,0-.27,6.77,1.9,13,0,0,5.69,18.42-.81,22.08,0,0-3.52,2.17-11.24-.41,0,0-20.99-9.48-26.82-2.57,0,0-6.5,6.64-.41,26.14l2.05,6.75c.09,.28-.23,.52-.47,.35l-14.58-9.55s-10.97-6.5-18.83,1.49c0,0-7.72,7.86,.68,28.17" fill="#fff" stroke="#231f20" stroke-linecap="round" stroke-linejoin="round"></path>
      <path d="M647.56,262.84l.54,5.01s-5.42-1.49-6.64,1.63c0,0-1.31,3.81,6.34,4.84,.96,.13,1.69,.94,1.74,1.91l.45,8.69,4.24,6.3c.39,.58,1.22,.65,1.7,.14,.86-.91,2.37-2.44,4.77-4.68,0,0,1.5-1.29,3.55-3.35,.43-.44,.42-1.15-.03-1.57l-3.55-3.29c-.7-.65-1.22-1.47-1.51-2.38-.53-1.69-1.82-4.71-4.68-7.02l-6.91-6.23Z" fill="#1b4d9d" stroke="#231f20" stroke-miterlimit="10"></path>
      <line x1="648.1" y1="267.85" x2="652.3" y2="268.53" fill="none" stroke="#231f20" stroke-linecap="round" stroke-linejoin="round"></line>
      <path d="M642.94,263.52s-4.32,2.3-3.78,5.01c0,0-1.63,1.63-.68,4.47,0,0-1.63,1.9-.54,4.06,0,0-2.17,1.76,1.08,4.06l9.07,4.47s2.17,.68,2.84-1.76c0,0,.18-1.38-.93-2.25,0,0,1.2-1.01,.52-2.09,0,0,1.42-1.09,.39-3.13-.56-1.11-1.67-1.85-2.91-1.99-2-.23-5.48-.93-6.39-3.14-.42-1.03-.13-2.24,.72-2.97,.32-.28,.73-.63,1.21-.63l-.63-4.13Z" fill="#1b4d9d" stroke="#231f20" stroke-miterlimit="10"></path>
      <rect x="729.77" y="277.25" width="27.23" height="45.76" rx="13.61" ry="13.61" transform="translate(480.73 -457.3) rotate(48.89)" fill="#f9a17f" stroke="#231f20" stroke-miterlimit="10"></rect>
      <path d="M751.92,283.88s-2.64,3.74-.07,7.67c0,0-4.54,5.49,1.49,8.67l5.28-.27,2.84-7.18-9.55-8.89Z" fill="#231f20" stroke="#231f20" stroke-miterlimit="10"></path>
      <path d="M755.78,277.65c-.59-.04-1.17-.14-1.73-.32-1.99-.64-6.83-1.77-3.43,3.62,0,0,3.7,6.31,4.66,11.79,.25,1.41,.04,2.86-.56,4.16-1.81,3.9-5.74,14.41-.4,23.29,1.6,2.65,2.59,5.61,3.13,8.66,.25,1.41,.78,2.8,1.85,3.61l3.93-2.03s.48,0,1.01,.64c.9,1.1,1.92,2.1,3.1,2.89,1.68,1.13,4.03,2.58,6.46,3.65,0,0,9.21-10.84,5.42-35.76,0,0-3.41-22.98-23.43-24.2Z" fill="#231f20" stroke="#231f20" stroke-miterlimit="10"></path>
      <ellipse cx="752.84" cy="308.86" rx="4.39" ry="2.71" transform="translate(-25.89 544.94) rotate(-39.17)" fill="#f9a17f" stroke="#231f20" stroke-miterlimit="10"></ellipse>
      <path d="M781.41,364.13l.51,8.15-21.54,2.71-.93-3.11c-.51-1.7-1.26-3.32-2.27-4.78-1.47-2.12-3.35-6.41-.87-12.56,0,0,3.93-8.67,4.61-11.24,0,0,5.42-13.27,12.87-5.69,0,0,.32,.08,.82,.3,3.06,1.29,5.16,4.13,5.58,7.4,.06,.49,.17,.96,.31,1.43,.76,2.64,2.93,10.95,1.28,15.11-.29,.73-.43,1.5-.38,2.28Z" fill="#1b4d9d" stroke="#231f20" stroke-miterlimit="10"></path>
      <path d="M779.93,430.18c-10.03,1.35-38.79,4.38-64.28-.89,.06-1.47,.15-2.98,.28-4.51,.03-.37,.06-.73,.08-1.1,1.19,.21,26.77,4.64,62.11,.09,.51,1.63,1.15,3.8,1.81,6.41Z" fill="#1b4d9d" stroke="#231f20" stroke-miterlimit="10"></path>
      <path d="M761.22,374.91s1.88,15.39,3.91,23.92l1.9,11.51s-2.17,11.24-2.84,21.54c0,0-.34,11.72-1.96,17.95,0,0-1.22,5.82-2.03,9.07l13.21-3.45s8.4-23.7,7.58-35.62c0,0,0-3.25,.54-6.1,0,0,.8-3.53,.3-7.66-.12-.99-.16-1.99-.16-2.99,.02-6.06,.03-25.27-.67-30.7l-19.78,2.53Z" fill="#f9a17f" stroke="#231f20" stroke-miterlimit="10"></path>
      <path d="M760.23,456.17l12.5-.89c.87-.06,1.6,.64,1.56,1.51-.04,.77-.19,1.74-.61,2.77-.6,1.49-.34,3.2,.75,4.37,.1,.1,.2,.21,.31,.31,0,0,5.13,6.23,1.93,9.88-.31,.35-.33,.86-.04,1.22l2.19,2.71c.81,1,1.08,2.36,.64,3.57-.09,.26-.22,.52-.39,.77,0,0-1.35,1.63-3.12,.95,0,0,.54,1.08-.81,2.3,0,0-1.08,1.22-2.98,1.22,0,0,.54,1.22-.81,2.44,0,0-2.44,2.71-5.28,1.49l1.09,2.27c.22,.47,.7,.76,1.21,.76,.68,0,1.55,.19,1.63,1.17,0,0,.14,2.84-2.84,3.12,0,0-3.52,.14-6.1-4.33,0,0-4.02-8.89-4.09-19.28,0-1,.06-2,.18-2.99l1.73-14.06c.08-.69,.65-1.22,1.34-1.27Z" fill="#1b4d9d" stroke="#231f20" stroke-miterlimit="10"></path>
      <path d="M775.97,483.35s-1.76-2.03-3.79-2.57" fill="none" stroke="#231f20" stroke-linecap="round" stroke-linejoin="round"></path>
      <path d="M772.17,486.87s-2.3-2.98-4.2-3.66" fill="none" stroke="#231f20" stroke-linecap="round" stroke-linejoin="round"></path>
      <path d="M766.08,490.8s-1.08-3.12-2.17-4.47" fill="none" stroke="#231f20" stroke-linecap="round" stroke-linejoin="round"></path>
      <rect x="767.2" y="517.56" width="3.79" height="5.62" transform="translate(-158.29 567.67) rotate(-37)" fill="#e2e3e4" stroke="#231f20" stroke-miterlimit="10"></rect>
      <path d="M764.23,507.22h0c2.39,0,4.33,1.94,4.33,4.33v8.97h-8.67v-8.97c0-2.39,1.94-4.33,4.33-4.33Z" transform="translate(-155.85 553.58) rotate(-36.39)" fill="#fff" stroke="#231f20" stroke-miterlimit="10"></path>
      <path d="M758.42,495.41h0c4.17,0,7.55,3.38,7.55,7.55v13.44h-15.11v-13.44c0-4.17,3.38-7.55,7.55-7.55Z" transform="translate(-152.25 548.58) rotate(-36.39)" fill="#e2e3e4" stroke="#231f20" stroke-miterlimit="10"></path>
      <path d="M750.43,484.57h0c4.93,0,8.92,4,8.92,8.92v12.07h-17.85v-12.07c0-4.93,4-8.92,8.92-8.92Z" transform="translate(-147.38 541.73) rotate(-36.39)" fill="#fff" stroke="#231f20" stroke-miterlimit="10"></path>
      <path d="M650.54,279.5s-5.89-1.29-9.01-4.94" fill="none" stroke="#231f20" stroke-linecap="round" stroke-linejoin="round"></path>
      <path d="M650.02,281.59s-4.83-1.21-8.62-4.32" fill="none" stroke="#231f20" stroke-linecap="round" stroke-linejoin="round"></path>
    </g>
  </g>
  <path d="M647.99,566.98l-4.59,1.15v1.15l-6.12,1.15h-1.15l-19.49,3.44-3.44-.38s-25.61,6.12-39.75,6.88v.76l-35.93,6.11-3.82-.76s-12.61,3.82-28.09-.76l-35.74-8.06s-2.3-.35-2.3-1.5v-2.21s0-1.99,2.3-1.99l1.91-14.53s-.77-3.44,6.88-4.59l111.61-14.91s3.46-.91,11.86,1.65l35.92,7.52s4.59,.76,5.35,5.35l1.91,9.93s3.06-.76,2.68,4.59Z" fill="#fff" stroke="#231f20" stroke-miterlimit="10"></path>
  <path d="M647.99,566.98v.3c0,.51-.32,.96-.8,1.12l-.34,.12-.31,12.22c-.04,1.55-1.2,2.83-2.74,3.02l-.39,.05-3.44,45.86c.38,2.68-1.15,3.06-1.15,3.06l-3.44,1.15c-1.91,.38-3.06-.38-3.06-.38l-74.18,17.39-1.87-.19-33.24,7.94c-1.27,.31-2.59,.36-3.89,.15l-6.14-.98c-1.28-.2-2.23-1.31-2.23-2.6v-1.57l-24.84-6.76-4.2,1.15-4.68-1.76c-.87-.33-1.47-1.14-1.54-2.07l-3.43-49.69-1.64-.85c-.81-.42-1.33-1.25-1.36-2.16l-.34-13.04-.69-.46c-.28-.19-.46-.51-.46-.86v-.97c0,1.15,2.3,1.5,2.3,1.5l35.74,8.06c15.48,4.59,28.09,.76,28.09,.76l3.82,.76,35.93-6.11v-.76c14.14-.76,39.75-6.88,39.75-6.88l3.44,.38,19.49-3.44h1.15l6.12-1.15v-1.15l4.59-1.15Z" fill="#e3e4e5" stroke="#231f20" stroke-miterlimit="10"></path>
  <path d="M469.89,571.95s-.76,1.47,1.6,2.18l42.84,9.11s10.46,1.97,18.24-1.1l-.47-7.78s-.1-2.23,2.07-2.41l27.17-3.72,2.83,.71s2.12,.47,2.59,3.3l.71,4.48,4.09-.67s5.81-.03,11.94-1.21c0,0,18.63-2.83,28.77-5.66l-.94-6.84s-.24-2.12,1.41-2.59l24.05-3.77,3.07,.94s2.12,.24,2.36,2.83l.71,4.24s1.71-.11,2.39-1.59" fill="none" stroke="#231f20" stroke-linecap="round" stroke-linejoin="round"></path>
  <path d="M472.08,594.5l38.08,9.1s10.61,2.59,19.57,.94l113.67-20.75" fill="none" stroke="#231f20" stroke-linecap="round" stroke-linejoin="round"></path>
  <line x1="486.87" y1="598.04" x2="485.94" y2="646.87" fill="none" stroke="#231f20" stroke-linecap="round" stroke-linejoin="round"></line>
  <line x1="510.78" y1="653.63" x2="506.21" y2="602.66" fill="none" stroke="#231f20" stroke-linecap="round" stroke-linejoin="round"></line>
  <line x1="535.71" y1="603.46" x2="530.05" y2="656.96" fill="none" stroke="#231f20" stroke-linecap="round" stroke-linejoin="round"></line>
  <line x1="556.26" y1="650.69" x2="556.26" y2="599.71" fill="none" stroke="#231f20" stroke-linecap="round" stroke-linejoin="round"></line>
  <line x1="558.14" y1="650.88" x2="558.14" y2="599.37" fill="none" stroke="#231f20" stroke-linecap="round" stroke-linejoin="round"></line>
  <line x1="614.26" y1="589.12" x2="609.18" y2="638.92" fill="none" stroke="#231f20" stroke-linecap="round" stroke-linejoin="round"></line>
  <line x1="632.32" y1="633.49" x2="631.61" y2="585.96" fill="none" stroke="#231f20" stroke-linecap="round" stroke-linejoin="round"></line>
  <line x1="634.28" y1="633.98" x2="633.17" y2="585.71" fill="none" stroke="#231f20" stroke-linecap="round" stroke-linejoin="round"></line>
</svg>
